<?xml version="1.0" encoding="utf-8" standalone="no"?>
<!DOCTYPE svg PUBLIC "-//W3C//DTD SVG 1.1//EN"
  "http://www.w3.org/Graphics/SVG/1.1/DTD/svg11.dtd">
<svg xmlns:xlink="http://www.w3.org/1999/xlink" width="1105.92pt" height="548.928pt" viewBox="0 0 1105.92 548.928" xmlns="http://www.w3.org/2000/svg" version="1.1">
 <metadata>
  <rdf:RDF xmlns:dc="http://purl.org/dc/elements/1.1/" xmlns:cc="http://creativecommons.org/ns#" xmlns:rdf="http://www.w3.org/1999/02/22-rdf-syntax-ns#">
   <cc:Work>
    <dc:type rdf:resource="http://purl.org/dc/dcmitype/StillImage"/>
    <dc:date>2024-07-02T16:02:36.075427</dc:date>
    <dc:format>image/svg+xml</dc:format>
    <dc:creator>
     <cc:Agent>
      <dc:title>Matplotlib v3.9.0, https://matplotlib.org/</dc:title>
     </cc:Agent>
    </dc:creator>
   </cc:Work>
  </rdf:RDF>
 </metadata>
 <defs>
  <style type="text/css">*{stroke-linejoin: round; stroke-linecap: butt}</style>
 </defs>
 <g id="figure_1">
  <g id="patch_1">
   <path d="M 0 548.928 
L 1105.92 548.928 
L 1105.92 0 
L 0 0 
z
" style="fill: #ffffff"/>
  </g>
  <g id="axes_1">
   <g id="patch_2">
    <path d="M 73.29792 269.05096 
L 1083.135636 269.05096 
L 1083.135636 77.07864 
L 73.29792 77.07864 
z
" style="fill: #ffffff"/>
   </g>
   <g id="PolyCollection_1">
    <defs>
     <path id="m07b142c900" d="M 119.199634 -279.953929 
L 119.199634 -279.87704 
L 122.371195 -279.87704 
L 125.542756 -279.87704 
L 128.714316 -279.87704 
L 131.885877 -279.87704 
L 135.057437 -279.87704 
L 138.228998 -279.87704 
L 141.400559 -279.87704 
L 144.572119 -279.87704 
L 147.74368 -279.87704 
L 150.915241 -279.87704 
L 154.086801 -279.87704 
L 157.258362 -279.87704 
L 160.429922 -279.87704 
L 163.601483 -279.87704 
L 166.773044 -279.87704 
L 169.944604 -279.87704 
L 173.116165 -279.87704 
L 176.287726 -279.87704 
L 179.459286 -279.87704 
L 182.630847 -279.87704 
L 185.802408 -279.87704 
L 188.973968 -279.87704 
L 192.145529 -279.87704 
L 195.317089 -279.87704 
L 198.48865 -279.87704 
L 201.660211 -279.87704 
L 204.831771 -279.87704 
L 208.003332 -279.87704 
L 211.174893 -279.87704 
L 214.346453 -279.87704 
L 217.518014 -279.87704 
L 220.689574 -279.87704 
L 223.861135 -279.87704 
L 227.032696 -279.87704 
L 230.204256 -279.87704 
L 233.375817 -279.87704 
L 236.547378 -279.87704 
L 239.718938 -279.87704 
L 242.890499 -279.87704 
L 246.062059 -279.87704 
L 249.23362 -279.87704 
L 252.405181 -279.87704 
L 255.576741 -279.87704 
L 258.748302 -279.87704 
L 261.919863 -279.87704 
L 265.091423 -279.87704 
L 268.262984 -279.87704 
L 271.434544 -279.87704 
L 274.606105 -279.87704 
L 277.777666 -279.87704 
L 280.949226 -279.87704 
L 284.120787 -279.87704 
L 287.292348 -279.87704 
L 290.463908 -279.87704 
L 293.635469 -279.87704 
L 296.807029 -279.87704 
L 299.97859 -279.87704 
L 303.150151 -279.87704 
L 306.321711 -279.87704 
L 309.493272 -279.87704 
L 312.664833 -279.87704 
L 315.836393 -279.87704 
L 319.007954 -279.87704 
L 322.179514 -279.87704 
L 325.351075 -279.87704 
L 328.522636 -279.87704 
L 331.694196 -279.87704 
L 334.865757 -279.87704 
L 338.037318 -279.87704 
L 341.208878 -279.87704 
L 344.380439 -279.87704 
L 347.551999 -279.87704 
L 350.72356 -279.87704 
L 353.895121 -279.87704 
L 357.066681 -279.87704 
L 360.238242 -279.87704 
L 363.409803 -279.87704 
L 366.581363 -279.87704 
L 369.752924 -279.87704 
L 372.924484 -279.87704 
L 376.096045 -279.87704 
L 379.267606 -279.87704 
L 382.439166 -279.87704 
L 385.610727 -279.87704 
L 388.782288 -279.87704 
L 391.953848 -279.87704 
L 395.125409 -279.87704 
L 398.296969 -279.87704 
L 401.46853 -279.87704 
L 404.640091 -279.87704 
L 407.811651 -279.87704 
L 410.983212 -279.87704 
L 414.154773 -279.87704 
L 417.326333 -279.87704 
L 420.497894 -279.87704 
L 423.669454 -279.87704 
L 426.841015 -279.87704 
L 430.012576 -279.87704 
L 433.184136 -279.87704 
L 436.355697 -279.87704 
L 439.527258 -279.87704 
L 442.698818 -279.87704 
L 445.870379 -279.87704 
L 449.041939 -279.87704 
L 452.2135 -279.87704 
L 455.385061 -279.87704 
L 458.556621 -279.87704 
L 461.728182 -279.87704 
L 464.899743 -279.87704 
L 468.071303 -279.87704 
L 471.242864 -279.87704 
L 474.414425 -279.87704 
L 477.585985 -279.87704 
L 480.757546 -279.87704 
L 483.929106 -279.87704 
L 487.100667 -279.87704 
L 490.272228 -279.87704 
L 493.443788 -279.87704 
L 496.615349 -279.87704 
L 499.78691 -279.87704 
L 502.95847 -279.87704 
L 506.130031 -279.87704 
L 509.301591 -279.87704 
L 512.473152 -279.87704 
L 515.644713 -279.87704 
L 518.816273 -279.87704 
L 521.987834 -279.87704 
L 525.159395 -279.87704 
L 528.330955 -279.87704 
L 531.502516 -279.87704 
L 534.674076 -279.87704 
L 537.845637 -279.87704 
L 541.017198 -279.87704 
L 544.188758 -279.87704 
L 547.360319 -279.87704 
L 550.53188 -279.87704 
L 553.70344 -279.87704 
L 556.875001 -279.87704 
L 560.046561 -279.87704 
L 563.218122 -279.87704 
L 566.389683 -279.87704 
L 569.561243 -279.87704 
L 572.732804 -279.87704 
L 575.904365 -279.87704 
L 579.075925 -279.87704 
L 582.247486 -279.87704 
L 585.419046 -279.87704 
L 588.590607 -279.87704 
L 591.762168 -279.87704 
L 594.933728 -279.87704 
L 598.105289 -279.87704 
L 601.27685 -279.87704 
L 604.44841 -279.87704 
L 607.619971 -279.87704 
L 610.791531 -279.87704 
L 613.963092 -279.87704 
L 617.134653 -279.87704 
L 620.306213 -279.87704 
L 623.477774 -279.87704 
L 626.649335 -279.87704 
L 629.820895 -279.87704 
L 632.992456 -279.87704 
L 636.164016 -279.87704 
L 639.335577 -279.87704 
L 642.507138 -279.87704 
L 645.678698 -279.87704 
L 648.850259 -279.87704 
L 652.02182 -279.87704 
L 655.19338 -279.87704 
L 658.364941 -279.87704 
L 661.536501 -279.87704 
L 664.708062 -279.87704 
L 667.879623 -279.87704 
L 671.051183 -279.87704 
L 674.222744 -279.87704 
L 677.394305 -279.87704 
L 680.565865 -279.87704 
L 683.737426 -279.87704 
L 686.908986 -279.87704 
L 690.080547 -279.87704 
L 693.252108 -279.87704 
L 696.423668 -279.87704 
L 699.595229 -279.87704 
L 702.76679 -279.87704 
L 705.93835 -279.87704 
L 709.109911 -279.87704 
L 712.281471 -279.87704 
L 715.453032 -279.87704 
L 718.624593 -279.87704 
L 721.796153 -279.87704 
L 724.967714 -279.87704 
L 728.139275 -279.87704 
L 731.310835 -279.87704 
L 734.482396 -279.87704 
L 737.653956 -279.87704 
L 740.825517 -279.87704 
L 743.997078 -279.87704 
L 747.168638 -279.87704 
L 750.340199 -279.87704 
L 750.340199 -279.96156 
L 750.340199 -279.96156 
L 747.168638 -280.032864 
L 743.997078 -280.152296 
L 740.825517 -280.342934 
L 737.653956 -280.632669 
L 734.482396 -281.051494 
L 731.310835 -281.626568 
L 728.139275 -282.375298 
L 724.967714 -283.297568 
L 721.796153 -284.369092 
L 718.624593 -285.538385 
L 715.453032 -286.729522 
L 712.281471 -287.85163 
L 709.109911 -288.814067 
L 705.93835 -289.544143 
L 702.76679 -290.002892 
L 699.595229 -290.19447 
L 696.423668 -290.166414 
L 693.252108 -290.000674 
L 690.080547 -289.798026 
L 686.908986 -289.660059 
L 683.737426 -289.672914 
L 680.565865 -289.895425 
L 677.394305 -290.352329 
L 674.222744 -291.03173 
L 671.051183 -291.885765 
L 667.879623 -292.834212 
L 664.708062 -293.771926 
L 661.536501 -294.581253 
L 658.364941 -295.149591 
L 655.19338 -295.390127 
L 652.02182 -295.261585 
L 648.850259 -294.781851 
L 645.678698 -294.031309 
L 642.507138 -293.144483 
L 639.335577 -292.292141 
L 636.164016 -291.658702 
L 632.992456 -291.420609 
L 629.820895 -291.729889 
L 626.649335 -292.704227 
L 623.477774 -294.421912 
L 620.306213 -296.918373 
L 617.134653 -300.181455 
L 613.963092 -304.144774 
L 610.791531 -308.681456 
L 607.619971 -313.602697 
L 604.44841 -318.665846 
L 601.27685 -323.594748 
L 598.105289 -328.111426 
L 594.933728 -331.974327 
L 591.762168 -335.015594 
L 588.590607 -337.169391 
L 585.419046 -338.485245 
L 582.247486 -339.124062 
L 579.075925 -339.338528 
L 575.904365 -339.442621 
L 572.732804 -339.776102 
L 569.561243 -340.669012 
L 566.389683 -342.409242 
L 563.218122 -345.214356 
L 560.046561 -349.208121 
L 556.875001 -354.402839 
L 553.70344 -360.690117 
L 550.53188 -367.843861 
L 547.360319 -375.538873 
L 544.188758 -383.386005 
L 541.017198 -390.980756 
L 537.845637 -397.958007 
L 534.674076 -404.042779 
L 531.502516 -409.086883 
L 528.330955 -413.084122 
L 525.159395 -416.161686 
L 521.987834 -418.550695 
L 518.816273 -420.543086 
L 515.644713 -422.443893 
L 512.473152 -424.527386 
L 509.301591 -427.003093 
L 506.130031 -429.994555 
L 502.95847 -433.530842 
L 499.78691 -437.548984 
L 496.615349 -441.904885 
L 493.443788 -446.390557 
L 490.272228 -450.756363 
L 487.100667 -454.737614 
L 483.929106 -458.084851 
L 480.757546 -460.595923 
L 477.585985 -462.145805 
L 474.414425 -462.707821 
L 471.242864 -462.359049 
L 468.071303 -461.264671 
L 464.899743 -459.641241 
L 461.728182 -457.705935 
L 458.556621 -455.625069 
L 455.385061 -453.477196 
L 452.2135 -451.242307 
L 449.041939 -448.819867 
L 445.870379 -446.068051 
L 442.698818 -442.849349 
L 439.527258 -439.06688 
L 436.355697 -434.681792 
L 433.184136 -429.71178 
L 430.012576 -424.219215 
L 426.841015 -418.300224 
L 423.669454 -412.08219 
L 420.497894 -405.728883 
L 417.326333 -399.444812 
L 414.154773 -393.467755 
L 410.983212 -388.042775 
L 407.811651 -383.380105 
L 404.640091 -379.608593 
L 401.46853 -376.740971 
L 398.296969 -374.664592 
L 395.125409 -373.162713 
L 391.953848 -371.960596 
L 388.782288 -370.782529 
L 385.610727 -369.403192 
L 382.439166 -367.680253 
L 379.267606 -365.562234 
L 376.096045 -363.073618 
L 372.924484 -360.284953 
L 369.752924 -357.278176 
L 366.581363 -354.116691 
L 363.409803 -350.827096 
L 360.238242 -347.395904 
L 357.066681 -343.78104 
L 353.895121 -339.934723 
L 350.72356 -335.831726 
L 347.551999 -331.495413 
L 344.380439 -327.013827 
L 341.208878 -322.539917 
L 338.037318 -318.273639 
L 334.865757 -314.428562 
L 331.694196 -311.190297 
L 328.522636 -308.677153 
L 325.351075 -306.91348 
L 322.179514 -305.823037 
L 319.007954 -305.244163 
L 315.836393 -304.962312 
L 312.664833 -304.750876 
L 309.493272 -304.409651 
L 306.321711 -303.792228 
L 303.150151 -302.818096 
L 299.97859 -301.470311 
L 296.807029 -299.783369 
L 293.635469 -297.827208 
L 290.463908 -295.692146 
L 287.292348 -293.477139 
L 284.120787 -291.281414 
L 280.949226 -289.198249 
L 277.777666 -287.309735 
L 274.606105 -285.682119 
L 271.434544 -284.362114 
L 268.262984 -283.374766 
L 265.091423 -282.723156 
L 261.919863 -282.389623 
L 258.748302 -282.33788 
L 255.576741 -282.515552 
L 252.405181 -282.857177 
L 249.23362 -283.288226 
L 246.062059 -283.730798 
L 242.890499 -284.111182 
L 239.718938 -284.368624 
L 236.547378 -284.463702 
L 233.375817 -284.384331 
L 230.204256 -284.147676 
L 227.032696 -283.797206 
L 223.861135 -283.395402 
L 220.689574 -283.013669 
L 217.518014 -282.721589 
L 214.346453 -282.577479 
L 211.174893 -282.621704 
L 208.003332 -282.873389 
L 204.831771 -283.330483 
L 201.660211 -283.97262 
L 198.48865 -284.765796 
L 195.317089 -285.667629 
L 192.145529 -286.631851 
L 188.973968 -287.610947 
L 185.802408 -288.556531 
L 182.630847 -289.418125 
L 179.459286 -290.141972 
L 176.287726 -290.671931 
L 173.116165 -290.953949 
L 169.944604 -290.944127 
L 166.773044 -290.618587 
L 163.601483 -289.981986 
L 160.429922 -289.071414 
L 157.258362 -287.953619 
L 154.086801 -286.715664 
L 150.915241 -285.451283 
L 147.74368 -284.246511 
L 144.572119 -283.168146 
L 141.400559 -282.257428 
L 138.228998 -281.529505 
L 135.057437 -280.977644 
L 131.885877 -280.580144 
L 128.714316 -280.307766 
L 125.542756 -280.13003 
L 122.371195 -280.019493 
L 119.199634 -279.953929 
z
" style="stroke: #0000ff"/>
    </defs>
    <g clip-path="url(#pb243aef92e)">
     <use xlink:href="#m07b142c900" x="0" y="548.928" style="fill: #0000ff; fill-opacity: 0.25; stroke: #0000ff"/>
    </g>
   </g>
   <g id="matplotlib.axis_1">
    <g id="xtick_1">
     <g id="line2d_1">
      <defs>
       <path id="ma10ca93029" d="M 0 0 
L 0 3.5 
" style="stroke: #000000; stroke-width: 0.8"/>
      </defs>
      <g>
       <use xlink:href="#ma10ca93029" x="122.455183" y="269.05096" style="stroke: #000000; stroke-width: 0.8"/>
      </g>
     </g>
    </g>
    <g id="xtick_2">
     <g id="line2d_2">
      <g>
       <use xlink:href="#ma10ca93029" x="258.678835" y="269.05096" style="stroke: #000000; stroke-width: 0.8"/>
      </g>
     </g>
    </g>
    <g id="xtick_3">
     <g id="line2d_3">
      <g>
       <use xlink:href="#ma10ca93029" x="394.902488" y="269.05096" style="stroke: #000000; stroke-width: 0.8"/>
      </g>
     </g>
    </g>
    <g id="xtick_4">
     <g id="line2d_4">
      <g>
       <use xlink:href="#ma10ca93029" x="531.126141" y="269.05096" style="stroke: #000000; stroke-width: 0.8"/>
      </g>
     </g>
    </g>
    <g id="xtick_5">
     <g id="line2d_5">
      <g>
       <use xlink:href="#ma10ca93029" x="667.349793" y="269.05096" style="stroke: #000000; stroke-width: 0.8"/>
      </g>
     </g>
    </g>
    <g id="xtick_6">
     <g id="line2d_6">
      <g>
       <use xlink:href="#ma10ca93029" x="803.573446" y="269.05096" style="stroke: #000000; stroke-width: 0.8"/>
      </g>
     </g>
    </g>
    <g id="xtick_7">
     <g id="line2d_7">
      <g>
       <use xlink:href="#ma10ca93029" x="939.797098" y="269.05096" style="stroke: #000000; stroke-width: 0.8"/>
      </g>
     </g>
    </g>
    <g id="xtick_8">
     <g id="line2d_8">
      <g>
       <use xlink:href="#ma10ca93029" x="1076.020751" y="269.05096" style="stroke: #000000; stroke-width: 0.8"/>
      </g>
     </g>
    </g>
   </g>
   <g id="matplotlib.axis_2">
    <g id="ytick_1">
     <g id="line2d_9">
      <defs>
       <path id="me3219d994e" d="M 0 0 
L -3.5 0 
" style="stroke: #000000; stroke-width: 0.8"/>
      </defs>
      <g>
       <use xlink:href="#me3219d994e" x="73.29792" y="269.05096" style="stroke: #000000; stroke-width: 0.8"/>
      </g>
     </g>
     <g id="text_1">
      <!-- 0.0 -->
      <g transform="translate(50.394795 272.850179) scale(0.1 -0.1)">
       <defs>
        <path id="DejaVuSans-30" d="M 2034 4250 
Q 1547 4250 1301 3770 
Q 1056 3291 1056 2328 
Q 1056 1369 1301 889 
Q 1547 409 2034 409 
Q 2525 409 2770 889 
Q 3016 1369 3016 2328 
Q 3016 3291 2770 3770 
Q 2525 4250 2034 4250 
z
M 2034 4750 
Q 2819 4750 3233 4129 
Q 3647 3509 3647 2328 
Q 3647 1150 3233 529 
Q 2819 -91 2034 -91 
Q 1250 -91 836 529 
Q 422 1150 422 2328 
Q 422 3509 836 4129 
Q 1250 4750 2034 4750 
z
" transform="scale(0.015625)"/>
        <path id="DejaVuSans-2e" d="M 684 794 
L 1344 794 
L 1344 0 
L 684 0 
L 684 794 
z
" transform="scale(0.015625)"/>
       </defs>
       <use xlink:href="#DejaVuSans-30"/>
       <use xlink:href="#DejaVuSans-2e" x="63.623047"/>
       <use xlink:href="#DejaVuSans-30" x="95.410156"/>
      </g>
     </g>
    </g>
    <g id="ytick_2">
     <g id="line2d_10">
      <g>
       <use xlink:href="#me3219d994e" x="73.29792" y="244.376022" style="stroke: #000000; stroke-width: 0.8"/>
      </g>
     </g>
     <g id="text_2">
      <!-- 0.5 -->
      <g transform="translate(50.394795 248.175241) scale(0.1 -0.1)">
       <defs>
        <path id="DejaVuSans-35" d="M 691 4666 
L 3169 4666 
L 3169 4134 
L 1269 4134 
L 1269 2991 
Q 1406 3038 1543 3061 
Q 1681 3084 1819 3084 
Q 2600 3084 3056 2656 
Q 3513 2228 3513 1497 
Q 3513 744 3044 326 
Q 2575 -91 1722 -91 
Q 1428 -91 1123 -41 
Q 819 9 494 109 
L 494 744 
Q 775 591 1075 516 
Q 1375 441 1709 441 
Q 2250 441 2565 725 
Q 2881 1009 2881 1497 
Q 2881 1984 2565 2268 
Q 2250 2553 1709 2553 
Q 1456 2553 1204 2497 
Q 953 2441 691 2322 
L 691 4666 
z
" transform="scale(0.015625)"/>
       </defs>
       <use xlink:href="#DejaVuSans-30"/>
       <use xlink:href="#DejaVuSans-2e" x="63.623047"/>
       <use xlink:href="#DejaVuSans-35" x="95.410156"/>
      </g>
     </g>
    </g>
    <g id="ytick_3">
     <g id="line2d_11">
      <g>
       <use xlink:href="#me3219d994e" x="73.29792" y="219.701084" style="stroke: #000000; stroke-width: 0.8"/>
      </g>
     </g>
     <g id="text_3">
      <!-- 1.0 -->
      <g transform="translate(50.394795 223.500303) scale(0.1 -0.1)">
       <defs>
        <path id="DejaVuSans-31" d="M 794 531 
L 1825 531 
L 1825 4091 
L 703 3866 
L 703 4441 
L 1819 4666 
L 2450 4666 
L 2450 531 
L 3481 531 
L 3481 0 
L 794 0 
L 794 531 
z
" transform="scale(0.015625)"/>
       </defs>
       <use xlink:href="#DejaVuSans-31"/>
       <use xlink:href="#DejaVuSans-2e" x="63.623047"/>
       <use xlink:href="#DejaVuSans-30" x="95.410156"/>
      </g>
     </g>
    </g>
    <g id="ytick_4">
     <g id="line2d_12">
      <g>
       <use xlink:href="#me3219d994e" x="73.29792" y="195.026146" style="stroke: #000000; stroke-width: 0.8"/>
      </g>
     </g>
     <g id="text_4">
      <!-- 1.5 -->
      <g transform="translate(50.394795 198.825365) scale(0.1 -0.1)">
       <use xlink:href="#DejaVuSans-31"/>
       <use xlink:href="#DejaVuSans-2e" x="63.623047"/>
       <use xlink:href="#DejaVuSans-35" x="95.410156"/>
      </g>
     </g>
    </g>
    <g id="ytick_5">
     <g id="line2d_13">
      <g>
       <use xlink:href="#me3219d994e" x="73.29792" y="170.351208" style="stroke: #000000; stroke-width: 0.8"/>
      </g>
     </g>
     <g id="text_5">
      <!-- 2.0 -->
      <g transform="translate(50.394795 174.150427) scale(0.1 -0.1)">
       <defs>
        <path id="DejaVuSans-32" d="M 1228 531 
L 3431 531 
L 3431 0 
L 469 0 
L 469 531 
Q 828 903 1448 1529 
Q 2069 2156 2228 2338 
Q 2531 2678 2651 2914 
Q 2772 3150 2772 3378 
Q 2772 3750 2511 3984 
Q 2250 4219 1831 4219 
Q 1534 4219 1204 4116 
Q 875 4013 500 3803 
L 500 4441 
Q 881 4594 1212 4672 
Q 1544 4750 1819 4750 
Q 2544 4750 2975 4387 
Q 3406 4025 3406 3419 
Q 3406 3131 3298 2873 
Q 3191 2616 2906 2266 
Q 2828 2175 2409 1742 
Q 1991 1309 1228 531 
z
" transform="scale(0.015625)"/>
       </defs>
       <use xlink:href="#DejaVuSans-32"/>
       <use xlink:href="#DejaVuSans-2e" x="63.623047"/>
       <use xlink:href="#DejaVuSans-30" x="95.410156"/>
      </g>
     </g>
    </g>
    <g id="ytick_6">
     <g id="line2d_14">
      <g>
       <use xlink:href="#me3219d994e" x="73.29792" y="145.67627" style="stroke: #000000; stroke-width: 0.8"/>
      </g>
     </g>
     <g id="text_6">
      <!-- 2.5 -->
      <g transform="translate(50.394795 149.475489) scale(0.1 -0.1)">
       <use xlink:href="#DejaVuSans-32"/>
       <use xlink:href="#DejaVuSans-2e" x="63.623047"/>
       <use xlink:href="#DejaVuSans-35" x="95.410156"/>
      </g>
     </g>
    </g>
    <g id="ytick_7">
     <g id="line2d_15">
      <g>
       <use xlink:href="#me3219d994e" x="73.29792" y="121.001332" style="stroke: #000000; stroke-width: 0.8"/>
      </g>
     </g>
     <g id="text_7">
      <!-- 3.0 -->
      <g transform="translate(50.394795 124.800551) scale(0.1 -0.1)">
       <defs>
        <path id="DejaVuSans-33" d="M 2597 2516 
Q 3050 2419 3304 2112 
Q 3559 1806 3559 1356 
Q 3559 666 3084 287 
Q 2609 -91 1734 -91 
Q 1441 -91 1130 -33 
Q 819 25 488 141 
L 488 750 
Q 750 597 1062 519 
Q 1375 441 1716 441 
Q 2309 441 2620 675 
Q 2931 909 2931 1356 
Q 2931 1769 2642 2001 
Q 2353 2234 1838 2234 
L 1294 2234 
L 1294 2753 
L 1863 2753 
Q 2328 2753 2575 2939 
Q 2822 3125 2822 3475 
Q 2822 3834 2567 4026 
Q 2313 4219 1838 4219 
Q 1578 4219 1281 4162 
Q 984 4106 628 3988 
L 628 4550 
Q 988 4650 1302 4700 
Q 1616 4750 1894 4750 
Q 2613 4750 3031 4423 
Q 3450 4097 3450 3541 
Q 3450 3153 3228 2886 
Q 3006 2619 2597 2516 
z
" transform="scale(0.015625)"/>
       </defs>
       <use xlink:href="#DejaVuSans-33"/>
       <use xlink:href="#DejaVuSans-2e" x="63.623047"/>
       <use xlink:href="#DejaVuSans-30" x="95.410156"/>
      </g>
     </g>
    </g>
    <g id="ytick_8">
     <g id="line2d_16">
      <g>
       <use xlink:href="#me3219d994e" x="73.29792" y="96.326394" style="stroke: #000000; stroke-width: 0.8"/>
      </g>
     </g>
     <g id="text_8">
      <!-- 3.5 -->
      <g transform="translate(50.394795 100.125612) scale(0.1 -0.1)">
       <use xlink:href="#DejaVuSans-33"/>
       <use xlink:href="#DejaVuSans-2e" x="63.623047"/>
       <use xlink:href="#DejaVuSans-35" x="95.410156"/>
      </g>
     </g>
    </g>
    <g id="text_9">
     <!-- Density -->
     <g transform="translate(44.315107 192.073394) rotate(-90) scale(0.1 -0.1)">
      <defs>
       <path id="DejaVuSans-44" d="M 1259 4147 
L 1259 519 
L 2022 519 
Q 2988 519 3436 956 
Q 3884 1394 3884 2338 
Q 3884 3275 3436 3711 
Q 2988 4147 2022 4147 
L 1259 4147 
z
M 628 4666 
L 1925 4666 
Q 3281 4666 3915 4102 
Q 4550 3538 4550 2338 
Q 4550 1131 3912 565 
Q 3275 0 1925 0 
L 628 0 
L 628 4666 
z
" transform="scale(0.015625)"/>
       <path id="DejaVuSans-65" d="M 3597 1894 
L 3597 1613 
L 953 1613 
Q 991 1019 1311 708 
Q 1631 397 2203 397 
Q 2534 397 2845 478 
Q 3156 559 3463 722 
L 3463 178 
Q 3153 47 2828 -22 
Q 2503 -91 2169 -91 
Q 1331 -91 842 396 
Q 353 884 353 1716 
Q 353 2575 817 3079 
Q 1281 3584 2069 3584 
Q 2775 3584 3186 3129 
Q 3597 2675 3597 1894 
z
M 3022 2063 
Q 3016 2534 2758 2815 
Q 2500 3097 2075 3097 
Q 1594 3097 1305 2825 
Q 1016 2553 972 2059 
L 3022 2063 
z
" transform="scale(0.015625)"/>
       <path id="DejaVuSans-6e" d="M 3513 2113 
L 3513 0 
L 2938 0 
L 2938 2094 
Q 2938 2591 2744 2837 
Q 2550 3084 2163 3084 
Q 1697 3084 1428 2787 
Q 1159 2491 1159 1978 
L 1159 0 
L 581 0 
L 581 3500 
L 1159 3500 
L 1159 2956 
Q 1366 3272 1645 3428 
Q 1925 3584 2291 3584 
Q 2894 3584 3203 3211 
Q 3513 2838 3513 2113 
z
" transform="scale(0.015625)"/>
       <path id="DejaVuSans-73" d="M 2834 3397 
L 2834 2853 
Q 2591 2978 2328 3040 
Q 2066 3103 1784 3103 
Q 1356 3103 1142 2972 
Q 928 2841 928 2578 
Q 928 2378 1081 2264 
Q 1234 2150 1697 2047 
L 1894 2003 
Q 2506 1872 2764 1633 
Q 3022 1394 3022 966 
Q 3022 478 2636 193 
Q 2250 -91 1575 -91 
Q 1294 -91 989 -36 
Q 684 19 347 128 
L 347 722 
Q 666 556 975 473 
Q 1284 391 1588 391 
Q 1994 391 2212 530 
Q 2431 669 2431 922 
Q 2431 1156 2273 1281 
Q 2116 1406 1581 1522 
L 1381 1569 
Q 847 1681 609 1914 
Q 372 2147 372 2553 
Q 372 3047 722 3315 
Q 1072 3584 1716 3584 
Q 2034 3584 2315 3537 
Q 2597 3491 2834 3397 
z
" transform="scale(0.015625)"/>
       <path id="DejaVuSans-69" d="M 603 3500 
L 1178 3500 
L 1178 0 
L 603 0 
L 603 3500 
z
M 603 4863 
L 1178 4863 
L 1178 4134 
L 603 4134 
L 603 4863 
z
" transform="scale(0.015625)"/>
       <path id="DejaVuSans-74" d="M 1172 4494 
L 1172 3500 
L 2356 3500 
L 2356 3053 
L 1172 3053 
L 1172 1153 
Q 1172 725 1289 603 
Q 1406 481 1766 481 
L 2356 481 
L 2356 0 
L 1766 0 
Q 1100 0 847 248 
Q 594 497 594 1153 
L 594 3053 
L 172 3053 
L 172 3500 
L 594 3500 
L 594 4494 
L 1172 4494 
z
" transform="scale(0.015625)"/>
       <path id="DejaVuSans-79" d="M 2059 -325 
Q 1816 -950 1584 -1140 
Q 1353 -1331 966 -1331 
L 506 -1331 
L 506 -850 
L 844 -850 
Q 1081 -850 1212 -737 
Q 1344 -625 1503 -206 
L 1606 56 
L 191 3500 
L 800 3500 
L 1894 763 
L 2988 3500 
L 3597 3500 
L 2059 -325 
z
" transform="scale(0.015625)"/>
      </defs>
      <use xlink:href="#DejaVuSans-44"/>
      <use xlink:href="#DejaVuSans-65" x="77.001953"/>
      <use xlink:href="#DejaVuSans-6e" x="138.525391"/>
      <use xlink:href="#DejaVuSans-73" x="201.904297"/>
      <use xlink:href="#DejaVuSans-69" x="254.003906"/>
      <use xlink:href="#DejaVuSans-74" x="281.787109"/>
      <use xlink:href="#DejaVuSans-79" x="320.996094"/>
     </g>
    </g>
   </g>
   <g id="patch_3">
    <path d="M 73.29792 269.05096 
L 73.29792 77.07864 
" style="fill: none; stroke: #000000; stroke-width: 0.8; stroke-linejoin: miter; stroke-linecap: square"/>
   </g>
   <g id="patch_4">
    <path d="M 1083.135636 269.05096 
L 1083.135636 77.07864 
" style="fill: none; stroke: #000000; stroke-width: 0.8; stroke-linejoin: miter; stroke-linecap: square"/>
   </g>
   <g id="patch_5">
    <path d="M 73.29792 269.05096 
L 1083.135636 269.05096 
" style="fill: none; stroke: #000000; stroke-width: 0.8; stroke-linejoin: miter; stroke-linecap: square"/>
   </g>
   <g id="patch_6">
    <path d="M 73.29792 77.07864 
L 1083.135636 77.07864 
" style="fill: none; stroke: #000000; stroke-width: 0.8; stroke-linejoin: miter; stroke-linecap: square"/>
   </g>
   <g id="text_10">
    <!-- Magface Genuine Distances -->
    <g transform="translate(494.492403 71.07864) scale(0.12 -0.12)">
     <defs>
      <path id="DejaVuSans-4d" d="M 628 4666 
L 1569 4666 
L 2759 1491 
L 3956 4666 
L 4897 4666 
L 4897 0 
L 4281 0 
L 4281 4097 
L 3078 897 
L 2444 897 
L 1241 4097 
L 1241 0 
L 628 0 
L 628 4666 
z
" transform="scale(0.015625)"/>
      <path id="DejaVuSans-61" d="M 2194 1759 
Q 1497 1759 1228 1600 
Q 959 1441 959 1056 
Q 959 750 1161 570 
Q 1363 391 1709 391 
Q 2188 391 2477 730 
Q 2766 1069 2766 1631 
L 2766 1759 
L 2194 1759 
z
M 3341 1997 
L 3341 0 
L 2766 0 
L 2766 531 
Q 2569 213 2275 61 
Q 1981 -91 1556 -91 
Q 1019 -91 701 211 
Q 384 513 384 1019 
Q 384 1609 779 1909 
Q 1175 2209 1959 2209 
L 2766 2209 
L 2766 2266 
Q 2766 2663 2505 2880 
Q 2244 3097 1772 3097 
Q 1472 3097 1187 3025 
Q 903 2953 641 2809 
L 641 3341 
Q 956 3463 1253 3523 
Q 1550 3584 1831 3584 
Q 2591 3584 2966 3190 
Q 3341 2797 3341 1997 
z
" transform="scale(0.015625)"/>
      <path id="DejaVuSans-67" d="M 2906 1791 
Q 2906 2416 2648 2759 
Q 2391 3103 1925 3103 
Q 1463 3103 1205 2759 
Q 947 2416 947 1791 
Q 947 1169 1205 825 
Q 1463 481 1925 481 
Q 2391 481 2648 825 
Q 2906 1169 2906 1791 
z
M 3481 434 
Q 3481 -459 3084 -895 
Q 2688 -1331 1869 -1331 
Q 1566 -1331 1297 -1286 
Q 1028 -1241 775 -1147 
L 775 -588 
Q 1028 -725 1275 -790 
Q 1522 -856 1778 -856 
Q 2344 -856 2625 -561 
Q 2906 -266 2906 331 
L 2906 616 
Q 2728 306 2450 153 
Q 2172 0 1784 0 
Q 1141 0 747 490 
Q 353 981 353 1791 
Q 353 2603 747 3093 
Q 1141 3584 1784 3584 
Q 2172 3584 2450 3431 
Q 2728 3278 2906 2969 
L 2906 3500 
L 3481 3500 
L 3481 434 
z
" transform="scale(0.015625)"/>
      <path id="DejaVuSans-66" d="M 2375 4863 
L 2375 4384 
L 1825 4384 
Q 1516 4384 1395 4259 
Q 1275 4134 1275 3809 
L 1275 3500 
L 2222 3500 
L 2222 3053 
L 1275 3053 
L 1275 0 
L 697 0 
L 697 3053 
L 147 3053 
L 147 3500 
L 697 3500 
L 697 3744 
Q 697 4328 969 4595 
Q 1241 4863 1831 4863 
L 2375 4863 
z
" transform="scale(0.015625)"/>
      <path id="DejaVuSans-63" d="M 3122 3366 
L 3122 2828 
Q 2878 2963 2633 3030 
Q 2388 3097 2138 3097 
Q 1578 3097 1268 2742 
Q 959 2388 959 1747 
Q 959 1106 1268 751 
Q 1578 397 2138 397 
Q 2388 397 2633 464 
Q 2878 531 3122 666 
L 3122 134 
Q 2881 22 2623 -34 
Q 2366 -91 2075 -91 
Q 1284 -91 818 406 
Q 353 903 353 1747 
Q 353 2603 823 3093 
Q 1294 3584 2113 3584 
Q 2378 3584 2631 3529 
Q 2884 3475 3122 3366 
z
" transform="scale(0.015625)"/>
      <path id="DejaVuSans-20" transform="scale(0.015625)"/>
      <path id="DejaVuSans-47" d="M 3809 666 
L 3809 1919 
L 2778 1919 
L 2778 2438 
L 4434 2438 
L 4434 434 
Q 4069 175 3628 42 
Q 3188 -91 2688 -91 
Q 1594 -91 976 548 
Q 359 1188 359 2328 
Q 359 3472 976 4111 
Q 1594 4750 2688 4750 
Q 3144 4750 3555 4637 
Q 3966 4525 4313 4306 
L 4313 3634 
Q 3963 3931 3569 4081 
Q 3175 4231 2741 4231 
Q 1884 4231 1454 3753 
Q 1025 3275 1025 2328 
Q 1025 1384 1454 906 
Q 1884 428 2741 428 
Q 3075 428 3337 486 
Q 3600 544 3809 666 
z
" transform="scale(0.015625)"/>
      <path id="DejaVuSans-75" d="M 544 1381 
L 544 3500 
L 1119 3500 
L 1119 1403 
Q 1119 906 1312 657 
Q 1506 409 1894 409 
Q 2359 409 2629 706 
Q 2900 1003 2900 1516 
L 2900 3500 
L 3475 3500 
L 3475 0 
L 2900 0 
L 2900 538 
Q 2691 219 2414 64 
Q 2138 -91 1772 -91 
Q 1169 -91 856 284 
Q 544 659 544 1381 
z
M 1991 3584 
L 1991 3584 
z
" transform="scale(0.015625)"/>
     </defs>
     <use xlink:href="#DejaVuSans-4d"/>
     <use xlink:href="#DejaVuSans-61" x="86.279297"/>
     <use xlink:href="#DejaVuSans-67" x="147.558594"/>
     <use xlink:href="#DejaVuSans-66" x="211.035156"/>
     <use xlink:href="#DejaVuSans-61" x="246.240234"/>
     <use xlink:href="#DejaVuSans-63" x="307.519531"/>
     <use xlink:href="#DejaVuSans-65" x="362.5"/>
     <use xlink:href="#DejaVuSans-20" x="424.023438"/>
     <use xlink:href="#DejaVuSans-47" x="455.810547"/>
     <use xlink:href="#DejaVuSans-65" x="533.300781"/>
     <use xlink:href="#DejaVuSans-6e" x="594.824219"/>
     <use xlink:href="#DejaVuSans-75" x="658.203125"/>
     <use xlink:href="#DejaVuSans-69" x="721.582031"/>
     <use xlink:href="#DejaVuSans-6e" x="749.365234"/>
     <use xlink:href="#DejaVuSans-65" x="812.744141"/>
     <use xlink:href="#DejaVuSans-20" x="874.267578"/>
     <use xlink:href="#DejaVuSans-44" x="906.054688"/>
     <use xlink:href="#DejaVuSans-69" x="983.056641"/>
     <use xlink:href="#DejaVuSans-73" x="1010.839844"/>
     <use xlink:href="#DejaVuSans-74" x="1062.939453"/>
     <use xlink:href="#DejaVuSans-61" x="1102.148438"/>
     <use xlink:href="#DejaVuSans-6e" x="1163.427734"/>
     <use xlink:href="#DejaVuSans-63" x="1226.806641"/>
     <use xlink:href="#DejaVuSans-65" x="1281.787109"/>
     <use xlink:href="#DejaVuSans-73" x="1343.310547"/>
    </g>
   </g>
  </g>
  <g id="axes_2">
   <g id="patch_7">
    <path d="M 73.29792 492.47228 
L 1083.135636 492.47228 
L 1083.135636 300.49996 
L 73.29792 300.49996 
z
" style="fill: #ffffff"/>
   </g>
   <g id="PolyCollection_2">
    <defs>
     <path id="ma72552ce42" d="M 736.320787 -56.51145 
L 736.320787 -56.45572 
L 737.832913 -56.45572 
L 739.34504 -56.45572 
L 740.857166 -56.45572 
L 742.369292 -56.45572 
L 743.881418 -56.45572 
L 745.393545 -56.45572 
L 746.905671 -56.45572 
L 748.417797 -56.45572 
L 749.929924 -56.45572 
L 751.44205 -56.45572 
L 752.954176 -56.45572 
L 754.466303 -56.45572 
L 755.978429 -56.45572 
L 757.490555 -56.45572 
L 759.002682 -56.45572 
L 760.514808 -56.45572 
L 762.026934 -56.45572 
L 763.53906 -56.45572 
L 765.051187 -56.45572 
L 766.563313 -56.45572 
L 768.075439 -56.45572 
L 769.587566 -56.45572 
L 771.099692 -56.45572 
L 772.611818 -56.45572 
L 774.123945 -56.45572 
L 775.636071 -56.45572 
L 777.148197 -56.45572 
L 778.660323 -56.45572 
L 780.17245 -56.45572 
L 781.684576 -56.45572 
L 783.196702 -56.45572 
L 784.708829 -56.45572 
L 786.220955 -56.45572 
L 787.733081 -56.45572 
L 789.245208 -56.45572 
L 790.757334 -56.45572 
L 792.26946 -56.45572 
L 793.781587 -56.45572 
L 795.293713 -56.45572 
L 796.805839 -56.45572 
L 798.317965 -56.45572 
L 799.830092 -56.45572 
L 801.342218 -56.45572 
L 802.854344 -56.45572 
L 804.366471 -56.45572 
L 805.878597 -56.45572 
L 807.390723 -56.45572 
L 808.90285 -56.45572 
L 810.414976 -56.45572 
L 811.927102 -56.45572 
L 813.439228 -56.45572 
L 814.951355 -56.45572 
L 816.463481 -56.45572 
L 817.975607 -56.45572 
L 819.487734 -56.45572 
L 820.99986 -56.45572 
L 822.511986 -56.45572 
L 824.024113 -56.45572 
L 825.536239 -56.45572 
L 827.048365 -56.45572 
L 828.560491 -56.45572 
L 830.072618 -56.45572 
L 831.584744 -56.45572 
L 833.09687 -56.45572 
L 834.608997 -56.45572 
L 836.121123 -56.45572 
L 837.633249 -56.45572 
L 839.145376 -56.45572 
L 840.657502 -56.45572 
L 842.169628 -56.45572 
L 843.681755 -56.45572 
L 845.193881 -56.45572 
L 846.706007 -56.45572 
L 848.218133 -56.45572 
L 849.73026 -56.45572 
L 851.242386 -56.45572 
L 852.754512 -56.45572 
L 854.266639 -56.45572 
L 855.778765 -56.45572 
L 857.290891 -56.45572 
L 858.803018 -56.45572 
L 860.315144 -56.45572 
L 861.82727 -56.45572 
L 863.339396 -56.45572 
L 864.851523 -56.45572 
L 866.363649 -56.45572 
L 867.875775 -56.45572 
L 869.387902 -56.45572 
L 870.900028 -56.45572 
L 872.412154 -56.45572 
L 873.924281 -56.45572 
L 875.436407 -56.45572 
L 876.948533 -56.45572 
L 878.46066 -56.45572 
L 879.972786 -56.45572 
L 881.484912 -56.45572 
L 882.997038 -56.45572 
L 884.509165 -56.45572 
L 886.021291 -56.45572 
L 887.533417 -56.45572 
L 889.045544 -56.45572 
L 890.55767 -56.45572 
L 892.069796 -56.45572 
L 893.581923 -56.45572 
L 895.094049 -56.45572 
L 896.606175 -56.45572 
L 898.118301 -56.45572 
L 899.630428 -56.45572 
L 901.142554 -56.45572 
L 902.65468 -56.45572 
L 904.166807 -56.45572 
L 905.678933 -56.45572 
L 907.191059 -56.45572 
L 908.703186 -56.45572 
L 910.215312 -56.45572 
L 911.727438 -56.45572 
L 913.239564 -56.45572 
L 914.751691 -56.45572 
L 916.263817 -56.45572 
L 917.775943 -56.45572 
L 919.28807 -56.45572 
L 920.800196 -56.45572 
L 922.312322 -56.45572 
L 923.824449 -56.45572 
L 925.336575 -56.45572 
L 926.848701 -56.45572 
L 928.360828 -56.45572 
L 929.872954 -56.45572 
L 931.38508 -56.45572 
L 932.897206 -56.45572 
L 934.409333 -56.45572 
L 935.921459 -56.45572 
L 937.433585 -56.45572 
L 938.945712 -56.45572 
L 940.457838 -56.45572 
L 941.969964 -56.45572 
L 943.482091 -56.45572 
L 944.994217 -56.45572 
L 946.506343 -56.45572 
L 948.018469 -56.45572 
L 949.530596 -56.45572 
L 951.042722 -56.45572 
L 952.554848 -56.45572 
L 954.066975 -56.45572 
L 955.579101 -56.45572 
L 957.091227 -56.45572 
L 958.603354 -56.45572 
L 960.11548 -56.45572 
L 961.627606 -56.45572 
L 963.139733 -56.45572 
L 964.651859 -56.45572 
L 966.163985 -56.45572 
L 967.676111 -56.45572 
L 969.188238 -56.45572 
L 970.700364 -56.45572 
L 972.21249 -56.45572 
L 973.724617 -56.45572 
L 975.236743 -56.45572 
L 976.748869 -56.45572 
L 978.260996 -56.45572 
L 979.773122 -56.45572 
L 981.285248 -56.45572 
L 982.797374 -56.45572 
L 984.309501 -56.45572 
L 985.821627 -56.45572 
L 987.333753 -56.45572 
L 988.84588 -56.45572 
L 990.358006 -56.45572 
L 991.870132 -56.45572 
L 993.382259 -56.45572 
L 994.894385 -56.45572 
L 996.406511 -56.45572 
L 997.918637 -56.45572 
L 999.430764 -56.45572 
L 1000.94289 -56.45572 
L 1002.455016 -56.45572 
L 1003.967143 -56.45572 
L 1005.479269 -56.45572 
L 1006.991395 -56.45572 
L 1008.503522 -56.45572 
L 1010.015648 -56.45572 
L 1011.527774 -56.45572 
L 1013.039901 -56.45572 
L 1014.552027 -56.45572 
L 1016.064153 -56.45572 
L 1017.576279 -56.45572 
L 1019.088406 -56.45572 
L 1020.600532 -56.45572 
L 1022.112658 -56.45572 
L 1023.624785 -56.45572 
L 1025.136911 -56.45572 
L 1026.649037 -56.45572 
L 1028.161164 -56.45572 
L 1029.67329 -56.45572 
L 1031.185416 -56.45572 
L 1032.697542 -56.45572 
L 1034.209669 -56.45572 
L 1035.721795 -56.45572 
L 1037.233921 -56.45572 
L 1037.233921 -56.51145 
L 1037.233921 -56.51145 
L 1035.721795 -56.555058 
L 1034.209669 -56.625895 
L 1032.697542 -56.735895 
L 1031.185416 -56.899046 
L 1029.67329 -57.129905 
L 1028.161164 -57.441103 
L 1026.649037 -57.839969 
L 1025.136911 -58.324801 
L 1023.624785 -58.881688 
L 1022.112658 -59.482988 
L 1020.600532 -60.088499 
L 1019.088406 -60.649895 
L 1017.576279 -61.118181 
L 1016.064153 -61.453048 
L 1014.552027 -61.632248 
L 1013.039901 -61.658875 
L 1011.527774 -61.564803 
L 1010.015648 -61.409396 
L 1008.503522 -61.273797 
L 1006.991395 -61.252096 
L 1005.479269 -61.441294 
L 1003.967143 -61.931993 
L 1002.455016 -62.801189 
L 1000.94289 -64.107742 
L 999.430764 -65.890248 
L 997.918637 -68.166498 
L 996.406511 -70.933543 
L 994.894385 -74.167678 
L 993.382259 -77.824238 
L 991.870132 -81.837657 
L 990.358006 -86.122684 
L 988.84588 -90.577621 
L 987.333753 -95.090046 
L 985.821627 -99.544808 
L 984.309501 -103.833414 
L 982.797374 -107.863534 
L 981.285248 -111.567317 
L 979.773122 -114.907569 
L 978.260996 -117.881182 
L 976.748869 -120.519472 
L 975.236743 -122.885044 
L 973.724617 -125.06481 
L 972.21249 -127.1591 
L 970.700364 -129.267756 
L 969.188238 -131.475575 
L 967.676111 -133.840763 
L 966.163985 -136.390344 
L 964.651859 -139.125057 
L 963.139733 -142.033264 
L 961.627606 -145.109862 
L 960.11548 -148.373748 
L 958.603354 -151.87742 
L 957.091227 -155.70503 
L 955.579101 -159.959522 
L 954.066975 -164.743349 
L 952.554848 -170.138682 
L 951.042722 -176.191486 
L 949.530596 -182.900237 
L 948.018469 -190.206824 
L 946.506343 -197.986393 
L 944.994217 -206.035459 
L 943.482091 -214.062276 
L 941.969964 -221.687597 
L 940.457838 -228.46469 
L 938.945712 -233.923381 
L 937.433585 -237.635017 
L 935.921459 -239.286501 
L 934.409333 -238.745835 
L 932.897206 -236.101478 
L 931.38508 -231.66385 
L 929.872954 -225.927229 
L 928.360828 -219.500558 
L 926.848701 -213.022764 
L 925.336575 -207.080199 
L 923.824449 -202.140828 
L 922.312322 -198.51381 
L 920.800196 -196.336433 
L 919.28807 -195.584967 
L 917.775943 -196.102805 
L 916.263817 -197.638105 
L 914.751691 -199.88362 
L 913.239564 -202.512933 
L 911.727438 -205.209645 
L 910.215312 -207.688589 
L 908.703186 -209.710506 
L 907.191059 -211.092873 
L 905.678933 -211.719305 
L 904.166807 -211.548324 
L 902.65468 -210.619874 
L 901.142554 -209.056231 
L 899.630428 -207.053678 
L 898.118301 -204.862938 
L 896.606175 -202.759235 
L 895.094049 -201.005807 
L 893.581923 -199.816657 
L 892.069796 -199.3246 
L 890.55767 -199.559548 
L 889.045544 -200.439959 
L 887.533417 -201.778401 
L 886.021291 -203.300416 
L 884.509165 -204.674456 
L 882.997038 -205.549318 
L 881.484912 -205.594248 
L 879.972786 -204.536104 
L 878.46066 -202.188159 
L 876.948533 -198.466635 
L 875.436407 -193.393757 
L 873.924281 -187.08903 
L 872.412154 -179.752661 
L 870.900028 -171.645579 
L 869.387902 -163.069325 
L 867.875775 -154.346902 
L 866.363649 -145.803594 
L 864.851523 -137.74596 
L 863.339396 -130.438107 
L 861.82727 -124.076655 
L 860.315144 -118.768471 
L 858.803018 -114.516992 
L 857.290891 -111.222768 
L 855.778765 -108.701404 
L 854.266639 -106.717853 
L 852.754512 -105.03129 
L 851.242386 -103.441162 
L 849.73026 -101.823788 
L 848.218133 -100.150721 
L 846.706007 -98.484533 
L 845.193881 -96.953431 
L 843.681755 -95.711447 
L 842.169628 -94.894241 
L 840.657502 -94.581056 
L 839.145376 -94.771104 
L 837.633249 -95.378551 
L 836.121123 -96.245542 
L 834.608997 -97.168671 
L 833.09687 -97.931852 
L 831.584744 -98.338147 
L 830.072618 -98.23464 
L 828.560491 -97.527206 
L 827.048365 -96.185161 
L 825.536239 -94.238083 
L 824.024113 -91.768069 
L 822.511986 -88.900064 
L 820.99986 -85.791379 
L 819.487734 -82.619937 
L 817.975607 -79.570106 
L 816.463481 -76.815541 
L 814.951355 -74.500027 
L 813.439228 -72.719088 
L 811.927102 -71.50624 
L 810.414976 -70.827586 
L 808.90285 -70.586899 
L 807.390723 -70.640948 
L 805.878597 -70.822347 
L 804.366471 -70.965434 
L 802.854344 -70.930141 
L 801.342218 -70.619588 
L 799.830092 -69.988835 
L 798.317965 -69.044354 
L 796.805839 -67.835651 
L 795.293713 -66.441761 
L 793.781587 -64.955742 
L 792.26946 -63.470053 
L 790.757334 -62.064942 
L 789.245208 -60.800988 
L 787.733081 -59.716064 
L 786.220955 -58.826208 
L 784.708829 -58.129436 
L 783.196702 -57.611277 
L 781.684576 -57.250829 
L 780.17245 -57.026317 
L 778.660323 -56.919373 
L 777.148197 -56.917578 
L 775.636071 -57.015033 
L 774.123945 -57.21098 
L 772.611818 -57.506713 
L 771.099692 -57.901294 
L 769.587566 -58.38689 
L 768.075439 -58.944799 
L 766.563313 -59.543338 
L 765.051187 -60.138571 
L 763.53906 -60.678303 
L 762.026934 -61.108944 
L 760.514808 -61.383969 
L 759.002682 -61.472063 
L 757.490555 -61.362938 
L 755.978429 -61.069279 
L 754.466303 -60.624308 
L 752.954176 -60.075599 
L 751.44205 -59.476723 
L 749.929924 -58.878759 
L 748.417797 -58.323483 
L 746.905671 -57.839398 
L 745.393545 -57.440865 
L 743.881418 -57.12981 
L 742.369292 -56.899009 
L 740.857166 -56.735882 
L 739.34504 -56.62589 
L 737.832913 -56.555056 
L 736.320787 -56.51145 
z
" style="stroke: #ff0000"/>
    </defs>
    <g clip-path="url(#pcb19abcc20)">
     <use xlink:href="#ma72552ce42" x="0" y="548.928" style="fill: #ff0000; fill-opacity: 0.25; stroke: #ff0000"/>
    </g>
   </g>
   <g id="matplotlib.axis_3">
    <g id="xtick_9">
     <g id="line2d_17">
      <g>
       <use xlink:href="#ma10ca93029" x="122.455183" y="492.47228" style="stroke: #000000; stroke-width: 0.8"/>
      </g>
     </g>
     <g id="text_11">
      <!-- 0.2 -->
      <g transform="translate(114.50362 507.070718) scale(0.1 -0.1)">
       <use xlink:href="#DejaVuSans-30"/>
       <use xlink:href="#DejaVuSans-2e" x="63.623047"/>
       <use xlink:href="#DejaVuSans-32" x="95.410156"/>
      </g>
     </g>
    </g>
    <g id="xtick_10">
     <g id="line2d_18">
      <g>
       <use xlink:href="#ma10ca93029" x="258.678835" y="492.47228" style="stroke: #000000; stroke-width: 0.8"/>
      </g>
     </g>
     <g id="text_12">
      <!-- 0.4 -->
      <g transform="translate(250.727273 507.070718) scale(0.1 -0.1)">
       <defs>
        <path id="DejaVuSans-34" d="M 2419 4116 
L 825 1625 
L 2419 1625 
L 2419 4116 
z
M 2253 4666 
L 3047 4666 
L 3047 1625 
L 3713 1625 
L 3713 1100 
L 3047 1100 
L 3047 0 
L 2419 0 
L 2419 1100 
L 313 1100 
L 313 1709 
L 2253 4666 
z
" transform="scale(0.015625)"/>
       </defs>
       <use xlink:href="#DejaVuSans-30"/>
       <use xlink:href="#DejaVuSans-2e" x="63.623047"/>
       <use xlink:href="#DejaVuSans-34" x="95.410156"/>
      </g>
     </g>
    </g>
    <g id="xtick_11">
     <g id="line2d_19">
      <g>
       <use xlink:href="#ma10ca93029" x="394.902488" y="492.47228" style="stroke: #000000; stroke-width: 0.8"/>
      </g>
     </g>
     <g id="text_13">
      <!-- 0.6 -->
      <g transform="translate(386.950925 507.070718) scale(0.1 -0.1)">
       <defs>
        <path id="DejaVuSans-36" d="M 2113 2584 
Q 1688 2584 1439 2293 
Q 1191 2003 1191 1497 
Q 1191 994 1439 701 
Q 1688 409 2113 409 
Q 2538 409 2786 701 
Q 3034 994 3034 1497 
Q 3034 2003 2786 2293 
Q 2538 2584 2113 2584 
z
M 3366 4563 
L 3366 3988 
Q 3128 4100 2886 4159 
Q 2644 4219 2406 4219 
Q 1781 4219 1451 3797 
Q 1122 3375 1075 2522 
Q 1259 2794 1537 2939 
Q 1816 3084 2150 3084 
Q 2853 3084 3261 2657 
Q 3669 2231 3669 1497 
Q 3669 778 3244 343 
Q 2819 -91 2113 -91 
Q 1303 -91 875 529 
Q 447 1150 447 2328 
Q 447 3434 972 4092 
Q 1497 4750 2381 4750 
Q 2619 4750 2861 4703 
Q 3103 4656 3366 4563 
z
" transform="scale(0.015625)"/>
       </defs>
       <use xlink:href="#DejaVuSans-30"/>
       <use xlink:href="#DejaVuSans-2e" x="63.623047"/>
       <use xlink:href="#DejaVuSans-36" x="95.410156"/>
      </g>
     </g>
    </g>
    <g id="xtick_12">
     <g id="line2d_20">
      <g>
       <use xlink:href="#ma10ca93029" x="531.126141" y="492.47228" style="stroke: #000000; stroke-width: 0.8"/>
      </g>
     </g>
     <g id="text_14">
      <!-- 0.8 -->
      <g transform="translate(523.174578 507.070718) scale(0.1 -0.1)">
       <defs>
        <path id="DejaVuSans-38" d="M 2034 2216 
Q 1584 2216 1326 1975 
Q 1069 1734 1069 1313 
Q 1069 891 1326 650 
Q 1584 409 2034 409 
Q 2484 409 2743 651 
Q 3003 894 3003 1313 
Q 3003 1734 2745 1975 
Q 2488 2216 2034 2216 
z
M 1403 2484 
Q 997 2584 770 2862 
Q 544 3141 544 3541 
Q 544 4100 942 4425 
Q 1341 4750 2034 4750 
Q 2731 4750 3128 4425 
Q 3525 4100 3525 3541 
Q 3525 3141 3298 2862 
Q 3072 2584 2669 2484 
Q 3125 2378 3379 2068 
Q 3634 1759 3634 1313 
Q 3634 634 3220 271 
Q 2806 -91 2034 -91 
Q 1263 -91 848 271 
Q 434 634 434 1313 
Q 434 1759 690 2068 
Q 947 2378 1403 2484 
z
M 1172 3481 
Q 1172 3119 1398 2916 
Q 1625 2713 2034 2713 
Q 2441 2713 2670 2916 
Q 2900 3119 2900 3481 
Q 2900 3844 2670 4047 
Q 2441 4250 2034 4250 
Q 1625 4250 1398 4047 
Q 1172 3844 1172 3481 
z
" transform="scale(0.015625)"/>
       </defs>
       <use xlink:href="#DejaVuSans-30"/>
       <use xlink:href="#DejaVuSans-2e" x="63.623047"/>
       <use xlink:href="#DejaVuSans-38" x="95.410156"/>
      </g>
     </g>
    </g>
    <g id="xtick_13">
     <g id="line2d_21">
      <g>
       <use xlink:href="#ma10ca93029" x="667.349793" y="492.47228" style="stroke: #000000; stroke-width: 0.8"/>
      </g>
     </g>
     <g id="text_15">
      <!-- 1.0 -->
      <g transform="translate(659.398231 507.070718) scale(0.1 -0.1)">
       <use xlink:href="#DejaVuSans-31"/>
       <use xlink:href="#DejaVuSans-2e" x="63.623047"/>
       <use xlink:href="#DejaVuSans-30" x="95.410156"/>
      </g>
     </g>
    </g>
    <g id="xtick_14">
     <g id="line2d_22">
      <g>
       <use xlink:href="#ma10ca93029" x="803.573446" y="492.47228" style="stroke: #000000; stroke-width: 0.8"/>
      </g>
     </g>
     <g id="text_16">
      <!-- 1.2 -->
      <g transform="translate(795.621883 507.070718) scale(0.1 -0.1)">
       <use xlink:href="#DejaVuSans-31"/>
       <use xlink:href="#DejaVuSans-2e" x="63.623047"/>
       <use xlink:href="#DejaVuSans-32" x="95.410156"/>
      </g>
     </g>
    </g>
    <g id="xtick_15">
     <g id="line2d_23">
      <g>
       <use xlink:href="#ma10ca93029" x="939.797098" y="492.47228" style="stroke: #000000; stroke-width: 0.8"/>
      </g>
     </g>
     <g id="text_17">
      <!-- 1.4 -->
      <g transform="translate(931.845536 507.070718) scale(0.1 -0.1)">
       <use xlink:href="#DejaVuSans-31"/>
       <use xlink:href="#DejaVuSans-2e" x="63.623047"/>
       <use xlink:href="#DejaVuSans-34" x="95.410156"/>
      </g>
     </g>
    </g>
    <g id="xtick_16">
     <g id="line2d_24">
      <g>
       <use xlink:href="#ma10ca93029" x="1076.020751" y="492.47228" style="stroke: #000000; stroke-width: 0.8"/>
      </g>
     </g>
     <g id="text_18">
      <!-- 1.6 -->
      <g transform="translate(1068.069188 507.070718) scale(0.1 -0.1)">
       <use xlink:href="#DejaVuSans-31"/>
       <use xlink:href="#DejaVuSans-2e" x="63.623047"/>
       <use xlink:href="#DejaVuSans-36" x="95.410156"/>
      </g>
     </g>
    </g>
    <g id="text_19">
     <!-- Distance -->
     <g transform="translate(556.354278 520.748843) scale(0.1 -0.1)">
      <use xlink:href="#DejaVuSans-44"/>
      <use xlink:href="#DejaVuSans-69" x="77.001953"/>
      <use xlink:href="#DejaVuSans-73" x="104.785156"/>
      <use xlink:href="#DejaVuSans-74" x="156.884766"/>
      <use xlink:href="#DejaVuSans-61" x="196.09375"/>
      <use xlink:href="#DejaVuSans-6e" x="257.373047"/>
      <use xlink:href="#DejaVuSans-63" x="320.751953"/>
      <use xlink:href="#DejaVuSans-65" x="375.732422"/>
     </g>
    </g>
   </g>
   <g id="matplotlib.axis_4">
    <g id="ytick_9">
     <g id="line2d_25">
      <g>
       <use xlink:href="#me3219d994e" x="73.29792" y="492.47228" style="stroke: #000000; stroke-width: 0.8"/>
      </g>
     </g>
     <g id="text_20">
      <!-- 0 -->
      <g transform="translate(59.93542 496.271499) scale(0.1 -0.1)">
       <use xlink:href="#DejaVuSans-30"/>
      </g>
     </g>
    </g>
    <g id="ytick_10">
     <g id="line2d_26">
      <g>
       <use xlink:href="#me3219d994e" x="73.29792" y="465.43599" style="stroke: #000000; stroke-width: 0.8"/>
      </g>
     </g>
     <g id="text_21">
      <!-- 1 -->
      <g transform="translate(59.93542 469.235209) scale(0.1 -0.1)">
       <use xlink:href="#DejaVuSans-31"/>
      </g>
     </g>
    </g>
    <g id="ytick_11">
     <g id="line2d_27">
      <g>
       <use xlink:href="#me3219d994e" x="73.29792" y="438.3997" style="stroke: #000000; stroke-width: 0.8"/>
      </g>
     </g>
     <g id="text_22">
      <!-- 2 -->
      <g transform="translate(59.93542 442.198919) scale(0.1 -0.1)">
       <use xlink:href="#DejaVuSans-32"/>
      </g>
     </g>
    </g>
    <g id="ytick_12">
     <g id="line2d_28">
      <g>
       <use xlink:href="#me3219d994e" x="73.29792" y="411.363411" style="stroke: #000000; stroke-width: 0.8"/>
      </g>
     </g>
     <g id="text_23">
      <!-- 3 -->
      <g transform="translate(59.93542 415.162629) scale(0.1 -0.1)">
       <use xlink:href="#DejaVuSans-33"/>
      </g>
     </g>
    </g>
    <g id="ytick_13">
     <g id="line2d_29">
      <g>
       <use xlink:href="#me3219d994e" x="73.29792" y="384.327121" style="stroke: #000000; stroke-width: 0.8"/>
      </g>
     </g>
     <g id="text_24">
      <!-- 4 -->
      <g transform="translate(59.93542 388.12634) scale(0.1 -0.1)">
       <use xlink:href="#DejaVuSans-34"/>
      </g>
     </g>
    </g>
    <g id="ytick_14">
     <g id="line2d_30">
      <g>
       <use xlink:href="#me3219d994e" x="73.29792" y="357.290831" style="stroke: #000000; stroke-width: 0.8"/>
      </g>
     </g>
     <g id="text_25">
      <!-- 5 -->
      <g transform="translate(59.93542 361.09005) scale(0.1 -0.1)">
       <use xlink:href="#DejaVuSans-35"/>
      </g>
     </g>
    </g>
    <g id="ytick_15">
     <g id="line2d_31">
      <g>
       <use xlink:href="#me3219d994e" x="73.29792" y="330.254541" style="stroke: #000000; stroke-width: 0.8"/>
      </g>
     </g>
     <g id="text_26">
      <!-- 6 -->
      <g transform="translate(59.93542 334.05376) scale(0.1 -0.1)">
       <use xlink:href="#DejaVuSans-36"/>
      </g>
     </g>
    </g>
    <g id="ytick_16">
     <g id="line2d_32">
      <g>
       <use xlink:href="#me3219d994e" x="73.29792" y="303.218252" style="stroke: #000000; stroke-width: 0.8"/>
      </g>
     </g>
     <g id="text_27">
      <!-- 7 -->
      <g transform="translate(59.93542 307.01747) scale(0.1 -0.1)">
       <defs>
        <path id="DejaVuSans-37" d="M 525 4666 
L 3525 4666 
L 3525 4397 
L 1831 0 
L 1172 0 
L 2766 4134 
L 525 4134 
L 525 4666 
z
" transform="scale(0.015625)"/>
       </defs>
       <use xlink:href="#DejaVuSans-37"/>
      </g>
     </g>
    </g>
    <g id="text_28">
     <!-- Density -->
     <g transform="translate(53.855733 415.494714) rotate(-90) scale(0.1 -0.1)">
      <use xlink:href="#DejaVuSans-44"/>
      <use xlink:href="#DejaVuSans-65" x="77.001953"/>
      <use xlink:href="#DejaVuSans-6e" x="138.525391"/>
      <use xlink:href="#DejaVuSans-73" x="201.904297"/>
      <use xlink:href="#DejaVuSans-69" x="254.003906"/>
      <use xlink:href="#DejaVuSans-74" x="281.787109"/>
      <use xlink:href="#DejaVuSans-79" x="320.996094"/>
     </g>
    </g>
   </g>
   <g id="patch_8">
    <path d="M 73.29792 492.47228 
L 73.29792 300.49996 
" style="fill: none; stroke: #000000; stroke-width: 0.8; stroke-linejoin: miter; stroke-linecap: square"/>
   </g>
   <g id="patch_9">
    <path d="M 1083.135636 492.47228 
L 1083.135636 300.49996 
" style="fill: none; stroke: #000000; stroke-width: 0.8; stroke-linejoin: miter; stroke-linecap: square"/>
   </g>
   <g id="patch_10">
    <path d="M 73.29792 492.47228 
L 1083.135636 492.47228 
" style="fill: none; stroke: #000000; stroke-width: 0.8; stroke-linejoin: miter; stroke-linecap: square"/>
   </g>
   <g id="patch_11">
    <path d="M 73.29792 300.49996 
L 1083.135636 300.49996 
" style="fill: none; stroke: #000000; stroke-width: 0.8; stroke-linejoin: miter; stroke-linecap: square"/>
   </g>
   <g id="text_29">
    <!-- Magface Fake Distances -->
    <g transform="translate(506.070528 294.49996) scale(0.12 -0.12)">
     <defs>
      <path id="DejaVuSans-46" d="M 628 4666 
L 3309 4666 
L 3309 4134 
L 1259 4134 
L 1259 2759 
L 3109 2759 
L 3109 2228 
L 1259 2228 
L 1259 0 
L 628 0 
L 628 4666 
z
" transform="scale(0.015625)"/>
      <path id="DejaVuSans-6b" d="M 581 4863 
L 1159 4863 
L 1159 1991 
L 2875 3500 
L 3609 3500 
L 1753 1863 
L 3688 0 
L 2938 0 
L 1159 1709 
L 1159 0 
L 581 0 
L 581 4863 
z
" transform="scale(0.015625)"/>
     </defs>
     <use xlink:href="#DejaVuSans-4d"/>
     <use xlink:href="#DejaVuSans-61" x="86.279297"/>
     <use xlink:href="#DejaVuSans-67" x="147.558594"/>
     <use xlink:href="#DejaVuSans-66" x="211.035156"/>
     <use xlink:href="#DejaVuSans-61" x="246.240234"/>
     <use xlink:href="#DejaVuSans-63" x="307.519531"/>
     <use xlink:href="#DejaVuSans-65" x="362.5"/>
     <use xlink:href="#DejaVuSans-20" x="424.023438"/>
     <use xlink:href="#DejaVuSans-46" x="455.810547"/>
     <use xlink:href="#DejaVuSans-61" x="504.205078"/>
     <use xlink:href="#DejaVuSans-6b" x="565.484375"/>
     <use xlink:href="#DejaVuSans-65" x="619.769531"/>
     <use xlink:href="#DejaVuSans-20" x="681.292969"/>
     <use xlink:href="#DejaVuSans-44" x="713.080078"/>
     <use xlink:href="#DejaVuSans-69" x="790.082031"/>
     <use xlink:href="#DejaVuSans-73" x="817.865234"/>
     <use xlink:href="#DejaVuSans-74" x="869.964844"/>
     <use xlink:href="#DejaVuSans-61" x="909.173828"/>
     <use xlink:href="#DejaVuSans-6e" x="970.453125"/>
     <use xlink:href="#DejaVuSans-63" x="1033.832031"/>
     <use xlink:href="#DejaVuSans-65" x="1088.8125"/>
     <use xlink:href="#DejaVuSans-73" x="1150.335938"/>
    </g>
   </g>
  </g>
  <g id="text_30">
   <!-- Probability Density Function of Magface Distances -->
   <g transform="translate(352.74125 23.13606) scale(0.16 -0.16)">
    <defs>
     <path id="DejaVuSans-50" d="M 1259 4147 
L 1259 2394 
L 2053 2394 
Q 2494 2394 2734 2622 
Q 2975 2850 2975 3272 
Q 2975 3691 2734 3919 
Q 2494 4147 2053 4147 
L 1259 4147 
z
M 628 4666 
L 2053 4666 
Q 2838 4666 3239 4311 
Q 3641 3956 3641 3272 
Q 3641 2581 3239 2228 
Q 2838 1875 2053 1875 
L 1259 1875 
L 1259 0 
L 628 0 
L 628 4666 
z
" transform="scale(0.015625)"/>
     <path id="DejaVuSans-72" d="M 2631 2963 
Q 2534 3019 2420 3045 
Q 2306 3072 2169 3072 
Q 1681 3072 1420 2755 
Q 1159 2438 1159 1844 
L 1159 0 
L 581 0 
L 581 3500 
L 1159 3500 
L 1159 2956 
Q 1341 3275 1631 3429 
Q 1922 3584 2338 3584 
Q 2397 3584 2469 3576 
Q 2541 3569 2628 3553 
L 2631 2963 
z
" transform="scale(0.015625)"/>
     <path id="DejaVuSans-6f" d="M 1959 3097 
Q 1497 3097 1228 2736 
Q 959 2375 959 1747 
Q 959 1119 1226 758 
Q 1494 397 1959 397 
Q 2419 397 2687 759 
Q 2956 1122 2956 1747 
Q 2956 2369 2687 2733 
Q 2419 3097 1959 3097 
z
M 1959 3584 
Q 2709 3584 3137 3096 
Q 3566 2609 3566 1747 
Q 3566 888 3137 398 
Q 2709 -91 1959 -91 
Q 1206 -91 779 398 
Q 353 888 353 1747 
Q 353 2609 779 3096 
Q 1206 3584 1959 3584 
z
" transform="scale(0.015625)"/>
     <path id="DejaVuSans-62" d="M 3116 1747 
Q 3116 2381 2855 2742 
Q 2594 3103 2138 3103 
Q 1681 3103 1420 2742 
Q 1159 2381 1159 1747 
Q 1159 1113 1420 752 
Q 1681 391 2138 391 
Q 2594 391 2855 752 
Q 3116 1113 3116 1747 
z
M 1159 2969 
Q 1341 3281 1617 3432 
Q 1894 3584 2278 3584 
Q 2916 3584 3314 3078 
Q 3713 2572 3713 1747 
Q 3713 922 3314 415 
Q 2916 -91 2278 -91 
Q 1894 -91 1617 61 
Q 1341 213 1159 525 
L 1159 0 
L 581 0 
L 581 4863 
L 1159 4863 
L 1159 2969 
z
" transform="scale(0.015625)"/>
     <path id="DejaVuSans-6c" d="M 603 4863 
L 1178 4863 
L 1178 0 
L 603 0 
L 603 4863 
z
" transform="scale(0.015625)"/>
    </defs>
    <use xlink:href="#DejaVuSans-50"/>
    <use xlink:href="#DejaVuSans-72" x="58.552734"/>
    <use xlink:href="#DejaVuSans-6f" x="97.416016"/>
    <use xlink:href="#DejaVuSans-62" x="158.597656"/>
    <use xlink:href="#DejaVuSans-61" x="222.074219"/>
    <use xlink:href="#DejaVuSans-62" x="283.353516"/>
    <use xlink:href="#DejaVuSans-69" x="346.830078"/>
    <use xlink:href="#DejaVuSans-6c" x="374.613281"/>
    <use xlink:href="#DejaVuSans-69" x="402.396484"/>
    <use xlink:href="#DejaVuSans-74" x="430.179688"/>
    <use xlink:href="#DejaVuSans-79" x="469.388672"/>
    <use xlink:href="#DejaVuSans-20" x="528.568359"/>
    <use xlink:href="#DejaVuSans-44" x="560.355469"/>
    <use xlink:href="#DejaVuSans-65" x="637.357422"/>
    <use xlink:href="#DejaVuSans-6e" x="698.880859"/>
    <use xlink:href="#DejaVuSans-73" x="762.259766"/>
    <use xlink:href="#DejaVuSans-69" x="814.359375"/>
    <use xlink:href="#DejaVuSans-74" x="842.142578"/>
    <use xlink:href="#DejaVuSans-79" x="881.351562"/>
    <use xlink:href="#DejaVuSans-20" x="940.53125"/>
    <use xlink:href="#DejaVuSans-46" x="972.318359"/>
    <use xlink:href="#DejaVuSans-75" x="1024.337891"/>
    <use xlink:href="#DejaVuSans-6e" x="1087.716797"/>
    <use xlink:href="#DejaVuSans-63" x="1151.095703"/>
    <use xlink:href="#DejaVuSans-74" x="1206.076172"/>
    <use xlink:href="#DejaVuSans-69" x="1245.285156"/>
    <use xlink:href="#DejaVuSans-6f" x="1273.068359"/>
    <use xlink:href="#DejaVuSans-6e" x="1334.25"/>
    <use xlink:href="#DejaVuSans-20" x="1397.628906"/>
    <use xlink:href="#DejaVuSans-6f" x="1429.416016"/>
    <use xlink:href="#DejaVuSans-66" x="1490.597656"/>
    <use xlink:href="#DejaVuSans-20" x="1525.802734"/>
    <use xlink:href="#DejaVuSans-4d" x="1557.589844"/>
    <use xlink:href="#DejaVuSans-61" x="1643.869141"/>
    <use xlink:href="#DejaVuSans-67" x="1705.148438"/>
    <use xlink:href="#DejaVuSans-66" x="1768.625"/>
    <use xlink:href="#DejaVuSans-61" x="1803.830078"/>
    <use xlink:href="#DejaVuSans-63" x="1865.109375"/>
    <use xlink:href="#DejaVuSans-65" x="1920.089844"/>
    <use xlink:href="#DejaVuSans-20" x="1981.613281"/>
    <use xlink:href="#DejaVuSans-44" x="2013.400391"/>
    <use xlink:href="#DejaVuSans-69" x="2090.402344"/>
    <use xlink:href="#DejaVuSans-73" x="2118.185547"/>
    <use xlink:href="#DejaVuSans-74" x="2170.285156"/>
    <use xlink:href="#DejaVuSans-61" x="2209.494141"/>
    <use xlink:href="#DejaVuSans-6e" x="2270.773438"/>
    <use xlink:href="#DejaVuSans-63" x="2334.152344"/>
    <use xlink:href="#DejaVuSans-65" x="2389.132812"/>
    <use xlink:href="#DejaVuSans-73" x="2450.65625"/>
   </g>
  </g>
 </g>
 <defs>
  <clipPath id="pb243aef92e">
   <rect x="73.29792" y="77.07864" width="1009.837716" height="191.97232"/>
  </clipPath>
  <clipPath id="pcb19abcc20">
   <rect x="73.29792" y="300.49996" width="1009.837716" height="191.97232"/>
  </clipPath>
 </defs>
</svg>
